<svg xmlns="http://www.w3.org/2000/svg" width="135.049" height="135.049" viewBox="0 0 135.049 135.049">
  <g id="Group_1" data-name="Group 1" transform="translate(-1835.278 1047.941) rotate(-60)">
    <g id="Icon_feather-scissors" data-name="Icon feather-scissors" transform="translate(1751 1106)">
      <path id="Path_1" data-name="Path 1" d="M4.5,21.307A16.807,16.807,0,1,0,21.307,4.5,16.807,16.807,0,0,0,4.5,21.307Z" transform="translate(57.127 -4.5)" fill="none" stroke="#fff" stroke-linecap="round" stroke-linejoin="round" stroke-width="3"/>
      <path id="Path_2" data-name="Path 2" d="M4.5,39.307A16.807,16.807,0,1,0,21.307,22.5,16.807,16.807,0,0,0,4.5,39.307Z" transform="translate(57.127 44.729)" fill="none" stroke="#fff" stroke-linecap="round" stroke-linejoin="round" stroke-width="3"/>
      <path id="Path_3" data-name="Path 3" d="M12.18,6,78.737,72.557" transform="translate(-12.18 -0.398)" fill="none" stroke="#fff" stroke-linecap="round" stroke-linejoin="round" stroke-width="3"/>
      <path id="Path_4" data-name="Path 4" d="M52.687,21.72,21.705,52.646" transform="translate(-21.705 42.596)" fill="none" stroke="#fff" stroke-linecap="round" stroke-linejoin="round" stroke-width="3"/>
      <path id="Path_5" data-name="Path 5" d="M33.918,12.18,12.18,33.917" transform="translate(32.64 16.505)" fill="none" stroke="#fff" stroke-linecap="round" stroke-linejoin="round" stroke-width="3"/>
    </g>
  </g>
</svg>
