<?xml version="1.0" standalone="no"?>
<!DOCTYPE svg PUBLIC "-//W3C//DTD SVG 20010904//EN"
 "http://www.w3.org/TR/2001/REC-SVG-20010904/DTD/svg10.dtd">
<svg version="1.0" xmlns="http://www.w3.org/2000/svg"
 width="1291.000000pt" height="352.000000pt" viewBox="0 0 1291.000000 352.000000"
 preserveAspectRatio="xMidYMid meet">
<metadata>
Created by potrace 1.16, written by Peter Selinger 2001-2019
</metadata>
<g transform="translate(0.000000,352.000000) scale(0.100000,-0.100000)"
fill="#fff" stroke="none">
<path d="M0 2725 l0 -795 1318 0 c850 0 1340 4 1382 10 312 50 556 263 652
570 20 65 23 95 22 225 0 135 -3 158 -27 230 -77 231 -255 419 -475 504 -42
16 -104 34 -136 40 -41 8 -474 11 -1398 11 l-1338 0 0 -795z"/>
<path d="M3720 1765 l0 -1755 795 0 795 0 0 1755 0 1755 -795 0 -795 0 0
-1755z"/>
<path d="M6250 3500 c-264 -69 -478 -265 -565 -519 -147 -434 108 -901 560
-1022 112 -30 298 -30 410 0 291 78 512 301 582 588 22 94 22 276 -1 368 -25
97 -95 238 -156 312 -104 127 -270 232 -434 273 -107 27 -290 27 -396 0z"/>
<path d="M7590 1765 l0 -1755 795 0 795 0 0 1755 0 1755 -795 0 -795 0 0
-1755z"/>
<path d="M10915 3503 c-619 -80 -1136 -502 -1325 -1083 -68 -209 -75 -269 -75
-670 0 -301 3 -369 18 -445 103 -517 424 -935 887 -1153 124 -59 197 -85 340
-120 l105 -26 1018 -3 1017 -4 0 796 0 795 -870 0 -870 0 0 165 0 165 870 0
870 0 0 795 0 795 -977 -1 c-538 -1 -991 -4 -1008 -6z"/>
<path d="M0 805 l0 -795 1343 0 c1295 0 1345 1 1423 20 299 71 523 296 595
598 18 73 20 107 16 207 -7 140 -23 210 -78 322 -76 154 -205 281 -364 358
-178 86 -39 79 -1572 82 l-1363 3 0 -795z"/>
</g>
</svg>
