<svg xmlns="http://www.w3.org/2000/svg" xmlns:xlink="http://www.w3.org/1999/xlink" version="1.1" width="512" height="512" viewBox="0 0 512 512">
<g>
</g>
	<path style="fill:#fff;" d="M210.442 466.923c5.181 6.236 10.619 9.656 19.241 10.486 5.724 0.543 13.302-3.092 19.538-8.253 7.865-6.462 13.118-16.077 15.524-25.948 1.075-11.459-2.263-21.913-8.724-29.716-5.161-6.288-10.599-9.707-17.643-11.827-7.28 0.748-13.302 3.062-19.559 8.243-9.421 7.783-13.097 16.077-17.060 27.279-1.116 11.438 2.202 21.863 8.684 29.737v0zM81.142 338.923c5.202 6.267 12.216 8.377 20.777 9.206 8.622 0.819 14.623-1.495 22.456-7.946 9.421-7.793 13.097-16.077 15.504-25.959 2.375-9.923-0.963-20.337-7.404-28.16-5.181-6.277-13.517-9.974-22.098-10.813-7.025-2.099-14.582 1.495-22.436 7.977-7.823 6.451-13.076 16.067-14.203 27.525-2.355 9.892 0.963 20.296 7.403 28.17v0zM241.316 386.048c4.157 1.843 11.182 3.963 13.762 7.086 5.458 3.42 9.605 5.274 13.496 9.994 9.063 10.967 13.445 25.825 10.445 41.442-1.341 14.305-8.438 28.099-19.415 37.161-10.957 9.042-21.422 12.38-32.88 11.295-11.438-1.096-21.084-6.38-30.137-17.337-7.742-9.421-11.079-19.845-9.984-31.303 2.683-12.759 13.2-31.938 28.682-57.918 11.561-14.776 18.903-31.416 23.163-45.445 2.939-15.606 4.598-32.809 3.358-50.248-14.315-1.382-27.321-1.147-37.796 2.181-11.704 1.762-20.839 6.635-28.662 13.118-6.318 5.182-12.862 13.22-22.538 23.849-9.677 10.608-16.22 18.657-20.962 22.548-10.936 9.042-21.401 12.38-32.819 11.284-11.735 1.762-21.34-3.481-30.423-14.459-9.042-10.988-12.124-24.3-9.175-39.895 1.383-14.295 8.478-28.068 19.477-37.12 10.978-9.063 22.958-13.712 34.416-12.606 13.015-0.205 21.34 3.512 30.403 14.5 1.28 1.567 2.325 6 4.885 9.124 2.581 3.144 3.655 7.577 5.918 13.558l7.004 2.14c0 0 1.618-1.3 3.184-2.58 8.12-9.339 14.377-14.521 17.52-17.101 6.277-5.181 12.565-10.384 21.678-15.237 7.844-6.502 20.142-14.008 32.4-21.474l1.7-77.855 20.337-95.652 20.828-50.268-4.178 197.14 178.658-115.804c-4.485 16.927-10.301 32.236-18.985 47.309-9.943 13.486-24.617 30.863-46.582 48.968-3.154 2.601-6.277 5.181-9.154 4.915-1.567 1.28-3.123 2.57-4.7 3.861l-104.315 78.151c-1.925 19.998-6.441 36.905-10.926 53.832-5.837 15.329-12.923 29.123-22.856 42.588l5.171 6.257z" fill="#000000"/>
</svg>